<svg width="40" height="40" viewBox="0 0 24 24" fill="none" xmlns="http://www.w3.org/2000/svg">
  <rect width="24" height="24" rx="4" fill="#ffc107"></rect>
  <path d="M21.58 7.58C21.4 6.8 20.79 6.2 20.01 6.02C18.55 5.67 12 5.67 12 5.67C12 5.67 5.45 5.67 3.99 6.02C3.21 6.2 2.6 6.8 2.42 7.58C2 9.33 2 12 2 12C2 12 2 14.67 2.42 16.42C2.6 17.2 3.21 17.8 3.99 17.98C5.45 18.33 12 18.33 12 18.33C12 18.33 18.55 18.33 20.01 17.98C20.79 17.8 21.4 17.2 21.58 16.42C22 14.67 22 12 22 12C22 12 22 9.33 21.58 7.58ZM10 15.5V8.5L16 12L10 15.5Z" fill="black"></path>
</svg>
